<svg version="1.0" xmlns="http://www.w3.org/2000/svg" viewBox="0 0 627.9 407" style="enable-background:new 0 0 627.9 407" xml:space="preserve"><g/><path d="M199.6 59c1.3-.8 2.2.8 2.9 1.7 46.2 57.9 92.5 115.7 138.8 173.5.9.8.2 2.6-1.1 2.4h-66.4c-1.8 0-3.5-.9-4.6-2.2-23-28.7-45.9-57.4-68.9-86.1-1-1.2-1.5-2.7-1.4-4.2V60.9c0-.7 0-1.6.7-1.9zm213.9-.2c.9-.4 2 .5 1.8 1.5v83.2c.1 1.6-.3 3.2-1.3 4.4-7 8.7-14 17.5-21 26.2-1.2 1.5-3.1 2.3-5 2.3h-66c-1.3.2-2-1.6-1.1-2.4 30.5-38.2 61-76.3 91.5-114.5.4-.2.7-.5 1.1-.7zM261.4 284.3c6.7-1 13.7.2 19.6 3.4 5.8 3.1 10.5 8.1 13.3 14 3.1 6.5 3.8 14.1 2.1 21-1.7 6.8-5.7 12.9-11.2 17.1-9.4 7.4-23.3 8.5-33.8 2.7-6.1-3.2-11-8.6-13.7-14.8-3.5-7.8-3.5-17.1-.1-24.9 4-9.7 13.3-17 23.8-18.5m1.7 10.5c-6.7 1-12.6 5.8-15.2 12-2.7 6.2-2.2 13.7 1.4 19.4 3 4.8 8 8.3 13.6 9.2 5.7 1 11.8-.8 16.1-4.6 4.9-4.2 7.6-10.9 7.1-17.4-.4-5.8-3.4-11.3-8-14.8-4.2-3.2-9.8-4.7-15-3.8zm-166.7-9.1c2.6-.7 5.3-.1 8-.3.9.1 2.4-.4 2.9.7.2 1.4.1 2.8.1 4.2V327c10.7-13.4 21.4-26.8 32.2-40.2.6-.7 1.3-1.3 2.3-1.3 3.1-.1 6.2 0 9.2-.1 1.2 0 2.4-.2 3.4.6-3.6 4.7-7.4 9.3-11.1 13.9-11 13.8-22 27.6-33 41.3-.8 1-1.5 2.1-2.5 3-1 .8-2.3.5-3.5.6-2.7-.1-5.3.1-8-.2v-58.9zm74.5 2.1c1.1-1.6 3-2.5 4.9-2.5h7.1c.8-.1 1.3.8 1.2 1.5v56.4c.1.7-.3 1.6-1.2 1.5h-8.8c-1.1 0-1.9-.7-2.5-1.5L156.3 324c-5.2 6.5-10.3 12.9-15.5 19.4-.6.7-1.4 1.3-2.3 1.3-3.4.1-6.8 0-10.1 0-.8-.1-1.9.2-2.4-.7 14.9-18.7 30-37.4 44.9-56.2m-8.4 27.3c3.5 4.4 6.9 8.7 10.5 13.1V302c-3.5 4.4-7 8.7-10.5 13.1zm35-28.2c-.1-.7.3-1.5 1.1-1.5 3-.1 5.9 0 8.9 0 .8-.1 1.4.7 1.2 1.5v47.2h24.7c.7-.2 1.1.7.6 1.2-2.1 2.8-4.4 5.5-6.5 8.2-.7.9-1.8 1.3-2.9 1.2h-26.1c-.8 0-1.1-.8-1.1-1.5.1-18.7.1-37.5.1-56.3zm109.8 0c-.2-.9.5-1.7 1.4-1.5h45c.7-.1 1.5.3 1.4 1.1v12.2c.1 1-.4 1.8-1 2.5-4.3 5.4-8.6 10.8-12.9 16.1-.2.4-.9.9-.4 1.3 6.6 8.3 13.2 16.5 19.7 24.7.5.4.5 1.3-.3 1.3-3.9.1-7.8 0-11.7 0-1.5 0-2.4-1.4-3.2-2.4-6-7.6-12.1-15.1-18.1-22.7-.4-.6-1.1-1.4-.5-2 5.7-7.2 11.5-14.4 17.2-21.6-8.5 0-17 .1-25.4-.1-.2 15.9 0 31.8-.1 47.7.1.7-.7 1.2-1.3 1.1h-8.8c-.8 0-1.1-.9-1-1.5v-56.2zm62.8 0c-.1-.8.4-1.6 1.2-1.5 2.8-.1 5.6 0 8.4 0 1.1-.1 2.1.4 2.7 1.3 14 17.5 28 35.1 42 52.6 1.2 1.6 2.7 3.1 3.7 4.8-.1.2-.3.5-.4.7-3.4.2-6.8 0-10.2.1-1.3 0-3 .1-3.8-1.1-5.3-6.5-10.5-13.1-15.7-19.6-5.2 6.5-10.3 12.9-15.5 19.4-.6.7-1.4 1.3-2.3 1.3h-8.8c-.9.1-1.4-.8-1.2-1.5-.1-18.9-.1-37.7-.1-56.5m11.2 15.1v26.1c3.5-4.4 7-8.7 10.5-13.1-3.5-4.3-7-8.6-10.5-13zm38.2-15.1c-.1-.7.2-1.5 1-1.5 2.8-.1 5.6 0 8.4 0 1.1-.1 2.2.3 2.9 1.2 10.8 13.5 21.5 26.9 32.3 40.4v-40.1c-.2-.8.5-1.7 1.4-1.5 3 0 5.9-.1 8.9 0 .8 0 1 .9.9 1.5v56.3c.1.6-.2 1.5-1 1.5-2.9.1-5.9 0-8.8 0-1 0-1.9-.4-2.5-1.2-10.8-13.4-21.5-26.9-32.3-40.4v23.6c.2.7-.8 1.3-1.2.7-3.1-3.8-6.1-7.6-9.1-11.4-.7-.7-.9-1.7-.8-2.7-.1-8.7-.1-17.5-.1-26.4zm63.4-.4c-.1-.8.7-1.2 1.4-1.1h37c1.1-.1 2.2.3 2.8 1.2 2.2 2.7 4.4 5.4 6.5 8.2.6.5.1 1.4-.6 1.3-6.5.1-12.9 0-19.4 0v47.2c.2.8-.4 1.6-1.2 1.5h-8.8c-.6.1-1.2-.5-1.1-1.1-.1-15.9 0-31.7-.1-47.6h-15.3c-.7.1-1.5-.4-1.4-1.2.2-2.8.2-5.6.2-8.4z" style="fill:#ff4655"/></svg>